<mxfile host="Electron" agent="Mozilla/5.0 (Windows NT 10.0; Win64; x64) AppleWebKit/537.36 (KHTML, like Gecko) draw.io/28.1.2 Chrome/138.0.7204.243 Electron/37.4.0 Safari/537.36" version="28.1.2">
  <diagram name="Page-1" id="TGVONPb9px2pQtnE7lr-">
    <mxGraphModel dx="1489" dy="894" grid="1" gridSize="10" guides="1" tooltips="1" connect="1" arrows="1" fold="1" page="1" pageScale="1" pageWidth="850" pageHeight="1100" math="0" shadow="0">
      <root>
        <mxCell id="0" />
        <mxCell id="1" parent="0" />
        <mxCell id="bTBm4pMQ2WNWjAhYMXVg-25" value="" style="edgeStyle=orthogonalEdgeStyle;rounded=0;orthogonalLoop=1;jettySize=auto;html=1;" edge="1" parent="1" source="bTBm4pMQ2WNWjAhYMXVg-23" target="bTBm4pMQ2WNWjAhYMXVg-24">
          <mxGeometry relative="1" as="geometry" />
        </mxCell>
        <mxCell id="bTBm4pMQ2WNWjAhYMXVg-23" value="Start" style="strokeWidth=2;html=1;shape=mxgraph.flowchart.start_1;whiteSpace=wrap;" vertex="1" parent="1">
          <mxGeometry x="347.5" y="20" width="100" height="60" as="geometry" />
        </mxCell>
        <mxCell id="bTBm4pMQ2WNWjAhYMXVg-45" value="" style="edgeStyle=orthogonalEdgeStyle;rounded=0;orthogonalLoop=1;jettySize=auto;html=1;" edge="1" parent="1" source="bTBm4pMQ2WNWjAhYMXVg-24" target="bTBm4pMQ2WNWjAhYMXVg-43">
          <mxGeometry relative="1" as="geometry" />
        </mxCell>
        <mxCell id="bTBm4pMQ2WNWjAhYMXVg-24" value="Prompt the user to enter their last name" style="rounded=1;whiteSpace=wrap;html=1;absoluteArcSize=1;arcSize=14;strokeWidth=2;" vertex="1" parent="1">
          <mxGeometry x="347.5" y="110" width="100" height="100" as="geometry" />
        </mxCell>
        <mxCell id="bTBm4pMQ2WNWjAhYMXVg-56" style="edgeStyle=orthogonalEdgeStyle;rounded=0;orthogonalLoop=1;jettySize=auto;html=1;entryX=0;entryY=0.5;entryDx=0;entryDy=0;" edge="1" parent="1" source="bTBm4pMQ2WNWjAhYMXVg-28" target="bTBm4pMQ2WNWjAhYMXVg-30">
          <mxGeometry relative="1" as="geometry">
            <Array as="points">
              <mxPoint x="210" y="395" />
            </Array>
          </mxGeometry>
        </mxCell>
        <mxCell id="bTBm4pMQ2WNWjAhYMXVg-28" value="Prompt the user to enter their order&amp;nbsp;" style="rounded=1;whiteSpace=wrap;html=1;absoluteArcSize=1;arcSize=14;strokeWidth=2;" vertex="1" parent="1">
          <mxGeometry x="160" y="240" width="100" height="80" as="geometry" />
        </mxCell>
        <mxCell id="bTBm4pMQ2WNWjAhYMXVg-35" value="" style="edgeStyle=orthogonalEdgeStyle;rounded=0;orthogonalLoop=1;jettySize=auto;html=1;" edge="1" parent="1" source="bTBm4pMQ2WNWjAhYMXVg-30" target="bTBm4pMQ2WNWjAhYMXVg-33">
          <mxGeometry relative="1" as="geometry" />
        </mxCell>
        <mxCell id="bTBm4pMQ2WNWjAhYMXVg-30" value="User enters the number of bathrooms and rooms that need to be cleaned" style="shape=parallelogram;html=1;strokeWidth=2;perimeter=parallelogramPerimeter;whiteSpace=wrap;rounded=1;arcSize=12;size=0.23;" vertex="1" parent="1">
          <mxGeometry x="330" y="350" width="135" height="90" as="geometry" />
        </mxCell>
        <mxCell id="bTBm4pMQ2WNWjAhYMXVg-39" value="" style="edgeStyle=orthogonalEdgeStyle;rounded=0;orthogonalLoop=1;jettySize=auto;html=1;" edge="1" parent="1" source="bTBm4pMQ2WNWjAhYMXVg-33" target="bTBm4pMQ2WNWjAhYMXVg-38">
          <mxGeometry relative="1" as="geometry" />
        </mxCell>
        <mxCell id="bTBm4pMQ2WNWjAhYMXVg-33" value="Charge $40 for orignal service, then add $15 to each bathroom and $10 to every other bedroom" style="shape=parallelogram;html=1;strokeWidth=2;perimeter=parallelogramPerimeter;whiteSpace=wrap;rounded=1;arcSize=12;size=0.23;" vertex="1" parent="1">
          <mxGeometry x="330" y="470" width="135" height="90" as="geometry" />
        </mxCell>
        <mxCell id="bTBm4pMQ2WNWjAhYMXVg-42" value="" style="edgeStyle=orthogonalEdgeStyle;rounded=0;orthogonalLoop=1;jettySize=auto;html=1;" edge="1" parent="1" source="bTBm4pMQ2WNWjAhYMXVg-38" target="bTBm4pMQ2WNWjAhYMXVg-40">
          <mxGeometry relative="1" as="geometry" />
        </mxCell>
        <mxCell id="bTBm4pMQ2WNWjAhYMXVg-57" style="edgeStyle=orthogonalEdgeStyle;rounded=0;orthogonalLoop=1;jettySize=auto;html=1;exitX=1;exitY=0.5;exitDx=0;exitDy=0;entryX=1;entryY=0.5;entryDx=0;entryDy=0;" edge="1" parent="1" source="bTBm4pMQ2WNWjAhYMXVg-38" target="bTBm4pMQ2WNWjAhYMXVg-24">
          <mxGeometry relative="1" as="geometry" />
        </mxCell>
        <mxCell id="bTBm4pMQ2WNWjAhYMXVg-38" value="Prompt the user&#39;s last name, total # of bathrooms cleaned and its charge, total # of bedrooms cleaned and every other bedrooms that were charged, and total cost with a prompt saying &quot;Program has completed&quot;" style="rounded=1;whiteSpace=wrap;html=1;absoluteArcSize=1;arcSize=14;strokeWidth=2;" vertex="1" parent="1">
          <mxGeometry x="340" y="600" width="115" height="180" as="geometry" />
        </mxCell>
        <mxCell id="bTBm4pMQ2WNWjAhYMXVg-40" value="End" style="strokeWidth=2;html=1;shape=mxgraph.flowchart.start_1;whiteSpace=wrap;" vertex="1" parent="1">
          <mxGeometry x="347.5" y="820" width="100" height="60" as="geometry" />
        </mxCell>
        <mxCell id="bTBm4pMQ2WNWjAhYMXVg-46" value="" style="edgeStyle=orthogonalEdgeStyle;rounded=0;orthogonalLoop=1;jettySize=auto;html=1;" edge="1" parent="1" source="bTBm4pMQ2WNWjAhYMXVg-43" target="bTBm4pMQ2WNWjAhYMXVg-28">
          <mxGeometry relative="1" as="geometry" />
        </mxCell>
        <mxCell id="bTBm4pMQ2WNWjAhYMXVg-47" value="Yes" style="edgeLabel;html=1;align=center;verticalAlign=middle;resizable=0;points=[];" vertex="1" connectable="0" parent="bTBm4pMQ2WNWjAhYMXVg-46">
          <mxGeometry x="-0.1228" y="2" relative="1" as="geometry">
            <mxPoint as="offset" />
          </mxGeometry>
        </mxCell>
        <mxCell id="bTBm4pMQ2WNWjAhYMXVg-50" value="" style="edgeStyle=orthogonalEdgeStyle;rounded=0;orthogonalLoop=1;jettySize=auto;html=1;" edge="1" parent="1" source="bTBm4pMQ2WNWjAhYMXVg-43" target="bTBm4pMQ2WNWjAhYMXVg-49">
          <mxGeometry relative="1" as="geometry" />
        </mxCell>
        <mxCell id="bTBm4pMQ2WNWjAhYMXVg-52" value="No" style="edgeLabel;html=1;align=center;verticalAlign=middle;resizable=0;points=[];" vertex="1" connectable="0" parent="bTBm4pMQ2WNWjAhYMXVg-50">
          <mxGeometry x="-0.098" relative="1" as="geometry">
            <mxPoint as="offset" />
          </mxGeometry>
        </mxCell>
        <mxCell id="bTBm4pMQ2WNWjAhYMXVg-43" value="If user enters last name" style="strokeWidth=2;html=1;shape=mxgraph.flowchart.decision;whiteSpace=wrap;" vertex="1" parent="1">
          <mxGeometry x="347.5" y="230" width="100" height="100" as="geometry" />
        </mxCell>
        <mxCell id="bTBm4pMQ2WNWjAhYMXVg-49" value="Program Completed" style="rounded=1;whiteSpace=wrap;html=1;absoluteArcSize=1;arcSize=14;strokeWidth=2;" vertex="1" parent="1">
          <mxGeometry x="550" y="240" width="115" height="80" as="geometry" />
        </mxCell>
        <mxCell id="bTBm4pMQ2WNWjAhYMXVg-53" style="edgeStyle=orthogonalEdgeStyle;rounded=0;orthogonalLoop=1;jettySize=auto;html=1;exitX=0.5;exitY=1;exitDx=0;exitDy=0;entryX=1;entryY=0.5;entryDx=0;entryDy=0;entryPerimeter=0;" edge="1" parent="1" source="bTBm4pMQ2WNWjAhYMXVg-49" target="bTBm4pMQ2WNWjAhYMXVg-40">
          <mxGeometry relative="1" as="geometry" />
        </mxCell>
      </root>
    </mxGraphModel>
  </diagram>
</mxfile>
